<svg width="50" height="50" viewBox="0 0 50 50" fill="none" xmlns="http://www.w3.org/2000/svg">
<g id="fluent:person-heart-20-regular">
<path id="Vector" d="M22.5 5C19.8478 5 17.3043 6.05357 15.4289 7.92893C13.5536 9.8043 12.5 12.3478 12.5 15C12.5 17.6522 13.5536 20.1957 15.4289 22.0711C17.3043 23.9464 19.8478 25 22.5 25C25.1522 25 27.6957 23.9464 29.5711 22.0711C31.4464 20.1957 32.5 17.6522 32.5 15C32.5 12.3478 31.4464 9.8043 29.5711 7.92893C27.6957 6.05357 25.1522 5 22.5 5ZM15 15C15 13.0109 15.7902 11.1032 17.1967 9.6967C18.6032 8.29018 20.5109 7.5 22.5 7.5C24.4891 7.5 26.3968 8.29018 27.8033 9.6967C29.2098 11.1032 30 13.0109 30 15C30 16.9891 29.2098 18.8968 27.8033 20.3033C26.3968 21.7098 24.4891 22.5 22.5 22.5C20.5109 22.5 18.6032 21.7098 17.1967 20.3033C15.7902 18.8968 15 16.9891 15 15ZM10.0225 27.5C9.36409 27.4974 8.71164 27.6247 8.10256 27.8748C7.49348 28.1249 6.93976 28.4927 6.47315 28.9572C6.00654 29.4217 5.63621 29.9738 5.38342 30.5818C5.13062 31.1897 5.00032 31.8416 5 32.5C5 36.7275 7.0825 39.915 10.3375 41.9925C13.5425 44.035 17.8625 45 22.5 45C24.8875 45 27.19 44.745 29.3 44.2175L27.35 42.0825C25.84 42.3575 24.2125 42.5 22.5 42.5C18.1625 42.5 14.3575 41.59 11.6825 39.8825C9.0575 38.2075 7.5 35.775 7.5 32.5C7.5 31.1175 8.62 30 10.0225 30H23.2475C23.6668 29.0699 24.2503 28.2231 24.97 27.5H10.02H10.0225ZM36.2475 30.0075L34.6775 28.775C33.4957 27.8462 32.0076 27.3961 30.5092 27.5141C29.0107 27.6322 27.6115 28.3098 26.5897 29.4122C25.5679 30.5146 24.9984 31.9611 24.9942 33.4643C24.9901 34.9674 25.5518 36.417 26.5675 37.525L35.325 47.1C35.4421 47.2281 35.5846 47.3304 35.7435 47.4004C35.9023 47.4704 36.0739 47.5065 36.2475 47.5065C36.4211 47.5065 36.5927 47.4704 36.7515 47.4004C36.9104 47.3304 37.0529 47.2281 37.17 47.1L45.93 37.525C46.9457 36.417 47.5074 34.9674 47.5032 33.4643C47.4991 31.9611 46.9296 30.5146 45.9078 29.4122C44.886 28.3098 43.4868 27.6322 41.9883 27.5141C40.4898 27.3961 39.0018 27.8462 37.82 28.775L36.2475 30.0075Z" fill="#1A8FE3"/>
</g>
</svg>
