<svg width="40" height="38" viewBox="0 0 40 38" fill="none" xmlns="http://www.w3.org/2000/svg">
<path id="Vector" d="M3.99994 37.9994H23.2396C24.3938 38 25.5343 37.7506 26.5829 37.2683C27.6314 36.786 28.563 36.0822 29.3135 35.2055L39.5174 23.3016C39.731 23.0528 39.8802 22.7553 39.9518 22.4352C40.0234 22.1151 40.0151 21.7823 39.9278 21.4662C39.8405 21.15 39.6767 20.8602 39.451 20.6223C39.2253 20.3843 38.9445 20.2056 38.6334 20.1017L34.6974 18.7897C33.7462 18.4805 32.7333 18.4105 31.7486 18.586C30.7638 18.7615 29.8375 19.177 29.0515 19.7957L22.6816 24.8896L21.4477 22.4197C20.7866 21.0882 19.7659 19.9685 18.5012 19.1874C17.2365 18.4062 15.7783 17.9948 14.2918 17.9997H3.99994C1.79397 17.9997 0 19.7937 0 21.9997V33.9995C0 36.2054 1.79397 37.9994 3.99994 37.9994ZM3.99994 21.9997H14.2918C15.8177 21.9997 17.1877 22.8457 17.8697 24.2096L18.7637 25.9996H9.99984V29.9995H22.0276C22.3353 29.9955 22.6379 29.9202 22.9116 29.7795L22.9176 29.7775L22.9256 29.7735H22.9316L22.9356 29.7715H22.9436L22.9456 29.7695C22.9636 29.7755 22.9516 29.7675 22.9516 29.7675C22.9716 29.7675 22.9556 29.7655 22.9556 29.7655H22.9576L22.9616 29.7635L22.9676 29.7615L22.9716 29.7595L22.9756 29.7575L22.9816 29.7555L22.9856 29.7535C22.9916 29.7535 22.9876 29.7515 22.9896 29.7515L22.9956 29.7475L22.9996 29.7455L23.0036 29.7435L23.0096 29.7415L23.0136 29.7395H23.0156L23.0196 29.7375H23.0216L23.0256 29.7355L23.0296 29.7335C23.0476 29.7315 23.0356 29.7315 23.0356 29.7315L23.0396 29.7295C23.1167 29.683 23.1902 29.6309 23.2596 29.5735L31.5515 22.9397C32.0755 22.5237 32.7975 22.3937 33.4315 22.6057L34.5454 22.9777L26.2796 32.6235C25.8994 33.0552 25.4317 33.4012 24.9076 33.6384C24.3835 33.8756 23.8149 33.9987 23.2396 33.9995H3.99994V21.9997ZM27.9995 1.88111e-05H27.9655C27.6396 0.00401875 25.9536 0.0780174 23.9996 1.41C22.0976 0.114017 20.4517 0.0100185 20.0637 0.00201863L20.0037 1.88111e-05H19.9957C18.3937 1.88111e-05 16.8857 0.626009 15.7577 1.75599C14.6258 2.88997 13.9998 4.39595 13.9998 5.99992C13.9998 7.6039 14.6258 9.10987 15.7217 10.2079L22.5496 17.3797C22.7375 17.5748 22.9628 17.7298 23.212 17.8357C23.4612 17.9416 23.7293 17.9961 24 17.9959C24.2708 17.9957 24.5388 17.9408 24.7878 17.8346C25.0369 17.7284 25.262 17.573 25.4496 17.3777L32.2415 10.2419C33.3755 9.10987 33.9995 7.6039 33.9995 5.99992C33.9995 4.39595 33.3735 2.88997 32.2435 1.75799C31.6882 1.19909 31.0275 0.755924 30.2997 0.454162C29.5719 0.1524 28.7914 -0.00196129 28.0036 1.88111e-05H27.9995ZM29.9995 5.99992C29.9995 6.53391 29.7915 7.03591 29.3775 7.4499L23.9996 13.0998L18.5857 7.4139C18.2077 7.03591 17.9997 6.53391 17.9997 5.99992C17.9997 5.46593 18.2077 4.96394 18.5877 4.58394C18.9494 4.21606 19.4418 4.00614 19.9577 3.99995C20.0077 4.00195 20.9617 4.06395 22.0916 4.96994C22.2536 5.09994 22.4176 5.24793 22.5856 5.41393L23.9996 6.82791L25.4136 5.41393C25.5816 5.24793 25.7456 5.09994 25.9076 4.96994C26.9656 4.11995 27.8596 4.01395 28.0116 4.00195C28.2722 4.00191 28.5303 4.05349 28.7709 4.15372C29.0116 4.25396 29.23 4.40086 29.4135 4.58595C29.7915 4.96394 29.9995 5.46593 29.9995 5.99992Z" fill="white"/>
</svg>
