<svg width="32" height="40" viewBox="0 0 32 40" fill="none" xmlns="http://www.w3.org/2000/svg">
<path id="Vector" fill-rule="evenodd" clip-rule="evenodd" d="M16.0003 6.14625L14.1794 4.27454C11.3096 1.32603 5.94337 2.30125 3.99547 6.10308C3.1066 7.84273 2.85009 10.4382 4.59482 13.8794C6.24812 17.1505 9.70203 21.1301 16.0003 25.5033C22.2961 21.1276 25.75 17.1479 27.4058 13.8794C29.1505 10.4382 28.8966 7.84273 28.0052 6.10562C26.0573 2.30125 20.691 1.32603 17.8212 4.27454L16.0003 6.14625ZM14.7559 27.7331C-12.6214 8.83826 7.137 -5.67574 15.6676 2.1768C15.7819 2.28093 15.8937 2.39013 16.0029 2.50442C16.1121 2.39013 16.2238 2.28093 16.3381 2.1768C24.8713 -5.67574 44.622 8.8408 17.2447 27.7331L17.8416 28.9217C17.8789 28.9964 17.9012 29.0777 17.9071 29.161C17.913 29.2444 17.9025 29.328 17.8761 29.4073C17.8496 29.4865 17.8079 29.5598 17.7532 29.6229C17.6984 29.6859 17.6318 29.7377 17.5571 29.775C17.4824 29.8124 17.4011 29.8346 17.3178 29.8406C17.2344 29.8465 17.1508 29.8359 17.0715 29.8095C16.9923 29.7831 16.919 29.7413 16.8559 29.6866C16.7928 29.6319 16.7411 29.5653 16.7038 29.4906L16.6835 29.4474C16.7038 29.7268 16.7343 29.9604 16.7774 30.1839C16.9146 30.8696 17.1863 31.4232 17.8416 32.7311C18.573 34.199 18.4384 35.6517 18.0346 36.8682C17.6358 38.0593 16.9628 39.0701 16.5413 39.6999L16.5311 39.7177C16.4847 39.787 16.4252 39.8466 16.3558 39.8929C16.2864 39.9393 16.2086 39.9715 16.1268 39.9878C16.0449 40.0041 15.9607 40.0041 15.8789 39.9878C15.797 39.9715 15.7192 39.9393 15.6498 39.8929C15.5805 39.8465 15.5209 39.787 15.4746 39.7176C15.4282 39.6482 15.396 39.5704 15.3797 39.4886C15.3634 39.4067 15.3634 39.3225 15.3797 39.2407C15.396 39.1588 15.4283 39.081 15.4746 39.0117C15.9013 38.3717 16.4905 37.4879 16.8282 36.4644C17.166 35.4587 17.2422 34.3717 16.7038 33.3L16.6708 33.2289C16.0613 32.0099 15.7057 31.3039 15.533 30.4302C15.4619 30.0529 15.4177 29.671 15.401 29.2874L15.2994 29.4906C15.2624 29.5658 15.2109 29.6329 15.1479 29.6881C15.0849 29.7433 15.0115 29.7855 14.9321 29.8123C14.8527 29.839 14.7688 29.8497 14.6852 29.8439C14.6016 29.838 14.52 29.8157 14.4451 29.7781C14.3702 29.7406 14.3035 29.6886 14.2487 29.6252C14.194 29.5617 14.1524 29.488 14.1263 29.4084C14.1002 29.3288 14.0901 29.2448 14.0966 29.1613C14.1031 29.0777 14.126 28.9963 14.1642 28.9217L14.761 27.7331H14.7559ZM10.9541 5.23198C9.30584 4.77485 7.18779 5.44277 6.25574 7.25861C5.92305 7.91384 5.63353 9.00842 6.05257 10.649C6.21257 11.2687 7.10398 11.1519 7.28937 10.5398C7.8227 8.76969 8.88172 6.86497 10.7407 6.24276C11.2918 6.05736 11.5128 5.3869 10.9541 5.23198Z" fill="#1A8FE3"/>
</svg>
